<?xml version="1.0" encoding="utf-8"?>
<!-- Generator: Adobe Illustrator 27.5.0, SVG Export Plug-In . SVG Version: 6.00 Build 0)  -->
<svg version="1.1" xmlns="http://www.w3.org/2000/svg" xmlns:xlink="http://www.w3.org/1999/xlink" x="0px" y="0px"
	 viewBox="0 0 500 500" style="enable-background:new 0 0 500 500;" xml:space="preserve">
<g id="BACKGROUND">
	<rect style="fill:#312733;" width="500" height="500"/>
</g>
<g id="OBJECTS">
	<g>
		<text transform="matrix(1 0 0 1 148.2346 356.0919)" style="fill:#B39C60; font-family:'Tulia'; font-size:29.9995px;">EAU DE PARFUM</text>
		<g>
			<linearGradient id="SVGID_1_" gradientUnits="userSpaceOnUse" x1="229.9635" y1="293.0374" x2="275.0892" y2="328.5719">
				<stop  offset="0.0056" style="stop-color:#A59864"/>
				<stop  offset="0.3715" style="stop-color:#CEB256"/>
				<stop  offset="0.648" style="stop-color:#897849"/>
				<stop  offset="1" style="stop-color:#A59864"/>
			</linearGradient>
			<path style="fill:url(#SVGID_1_);" d="M288.152,310.805c-5.938,0.488-11.875,0.743-17.813,0.916
				c-5.938,0.188-11.875,0.238-17.813,0.261c-5.938-0.02-11.875-0.071-17.813-0.258c-5.938-0.173-11.875-0.429-17.813-0.919
				c5.938-0.49,11.875-0.747,17.813-0.919c5.938-0.187,11.875-0.238,17.813-0.258c5.938,0.023,11.875,0.074,17.813,0.262
				C276.277,310.062,282.215,310.317,288.152,310.805z"/>
		</g>
		<g>
			<g>
				<g>
					
						<linearGradient id="SVGID_00000099651785100717041960000001036546698195729575_" gradientUnits="userSpaceOnUse" x1="149.3578" y1="213.6597" x2="176.8304" y2="235.2933">
						<stop  offset="0.0056" style="stop-color:#A59864"/>
						<stop  offset="0.3715" style="stop-color:#CEB256"/>
						<stop  offset="0.648" style="stop-color:#897849"/>
						<stop  offset="1" style="stop-color:#A59864"/>
					</linearGradient>
					
						<circle style="fill:none;stroke:url(#SVGID_00000099651785100717041960000001036546698195729575_);stroke-width:2.4197;stroke-linecap:round;stroke-miterlimit:10;" cx="163.094" cy="224.477" r="16.273"/>
					
						<linearGradient id="SVGID_00000181070309056864324260000012744261566400544663_" gradientUnits="userSpaceOnUse" x1="160.1396" y1="215.6999" x2="166.0485" y2="220.3529">
						<stop  offset="0.0056" style="stop-color:#A59864"/>
						<stop  offset="0.3715" style="stop-color:#CEB256"/>
						<stop  offset="0.648" style="stop-color:#897849"/>
						<stop  offset="1" style="stop-color:#A59864"/>
					</linearGradient>
					
						<circle style="fill:none;stroke:url(#SVGID_00000181070309056864324260000012744261566400544663_);stroke-width:2.1866;stroke-linecap:round;stroke-miterlimit:10;" cx="163.094" cy="218.026" r="2.667"/>
					
						<linearGradient id="SVGID_00000000222792723692835690000014255563531891671464_" gradientUnits="userSpaceOnUse" x1="160.1396" y1="209.1389" x2="166.0486" y2="213.792">
						<stop  offset="0.0056" style="stop-color:#A59864"/>
						<stop  offset="0.3715" style="stop-color:#CEB256"/>
						<stop  offset="0.648" style="stop-color:#897849"/>
						<stop  offset="1" style="stop-color:#A59864"/>
					</linearGradient>
					
						<path style="fill:none;stroke:url(#SVGID_00000000222792723692835690000014255563531891671464_);stroke-width:2.1866;stroke-linecap:round;stroke-miterlimit:10;" d="
						M165.761,211.465c0,1.473-1.194,2.667-2.667,2.667c-1.473,0-2.667-1.194-2.667-2.667c0-1.473,1.194-2.667,2.667-2.667
						C164.567,208.798,165.761,209.992,165.761,211.465z"/>
					
						<linearGradient id="SVGID_00000144307721576061523740000003357133356126096273_" gradientUnits="userSpaceOnUse" x1="153.3972" y1="212.755" x2="159.3061" y2="217.4081">
						<stop  offset="0.0056" style="stop-color:#A59864"/>
						<stop  offset="0.3715" style="stop-color:#CEB256"/>
						<stop  offset="0.648" style="stop-color:#897849"/>
						<stop  offset="1" style="stop-color:#A59864"/>
					</linearGradient>
					
						<path style="fill:none;stroke:url(#SVGID_00000144307721576061523740000003357133356126096273_);stroke-width:2.1866;stroke-linecap:round;stroke-miterlimit:10;" d="
						M159.019,215.082c0,1.473-1.194,2.667-2.667,2.667c-1.473,0-2.667-1.194-2.667-2.667c0-1.473,1.194-2.667,2.667-2.667
						C157.825,212.414,159.019,213.609,159.019,215.082z"/>
					
						<linearGradient id="SVGID_00000068658660177987520960000011751472607612087691_" gradientUnits="userSpaceOnUse" x1="-203.2166" y1="741.3744" x2="-197.3079" y2="746.0273" gradientTransform="matrix(0.309 -0.9511 0.9511 0.309 -493.4828 -192.2106)">
						<stop  offset="0.0056" style="stop-color:#A59864"/>
						<stop  offset="0.3715" style="stop-color:#CEB256"/>
						<stop  offset="0.648" style="stop-color:#897849"/>
						<stop  offset="1" style="stop-color:#A59864"/>
					</linearGradient>
					
						<path style="fill:none;stroke:url(#SVGID_00000068658660177987520960000011751472607612087691_);stroke-width:2.1866;stroke-linecap:round;stroke-miterlimit:10;" d="
						M152.794,225.526c1.401,0.455,2.168,1.96,1.712,3.361c-0.455,1.401-1.96,2.168-3.361,1.712
						c-1.401-0.455-2.168-1.96-1.712-3.361C149.889,225.837,151.393,225.071,152.794,225.526z"/>
					
						<linearGradient id="SVGID_00000144303550188744973400000004217246887244242582_" gradientUnits="userSpaceOnUse" x1="-815.3185" y1="566.0744" x2="-809.4096" y2="570.7274" gradientTransform="matrix(-0.809 -0.5878 0.5878 -0.809 -828.3472 218.5696)">
						<stop  offset="0.0056" style="stop-color:#A59864"/>
						<stop  offset="0.3715" style="stop-color:#CEB256"/>
						<stop  offset="0.648" style="stop-color:#897849"/>
						<stop  offset="1" style="stop-color:#A59864"/>
					</linearGradient>
					
						<path style="fill:none;stroke:url(#SVGID_00000144303550188744973400000004217246887244242582_);stroke-width:2.1866;stroke-linecap:round;stroke-miterlimit:10;" d="
						M160.804,234.673c0.866-1.192,2.534-1.456,3.725-0.59c1.192,0.866,1.456,2.534,0.59,3.725c-0.866,1.192-2.534,1.456-3.726,0.59
						S159.938,235.865,160.804,234.673z"/>
					
						<linearGradient id="SVGID_00000163062277835308112140000007447280940638619273_" gradientUnits="userSpaceOnUse" x1="-838.3694" y1="-70.6441" x2="-832.4604" y2="-65.9911" gradientTransform="matrix(-0.809 0.5878 -0.5878 -0.809 -541.8715 664.1026)">
						<stop  offset="0.0056" style="stop-color:#A59864"/>
						<stop  offset="0.3715" style="stop-color:#CEB256"/>
						<stop  offset="0.648" style="stop-color:#897849"/>
						<stop  offset="1" style="stop-color:#A59864"/>
					</linearGradient>
					
						<path style="fill:none;stroke:url(#SVGID_00000163062277835308112140000007447280940638619273_);stroke-width:2.1866;stroke-linecap:round;stroke-miterlimit:10;" d="
						M171.979,229.882c-0.866-1.192-0.602-2.86,0.59-3.725s2.86-0.602,3.726,0.59c0.866,1.192,0.602,2.86-0.59,3.725
						C174.512,231.338,172.844,231.074,171.979,229.882z"/>
					
						<linearGradient id="SVGID_00000057130434741539494550000014621786524926138290_" gradientUnits="userSpaceOnUse" x1="-239.4475" y1="-289.7774" x2="-233.5387" y2="-285.1245" gradientTransform="matrix(0.309 0.9511 -0.9511 0.309 -30.2671 528.9884)">
						<stop  offset="0.0056" style="stop-color:#A59864"/>
						<stop  offset="0.3715" style="stop-color:#CEB256"/>
						<stop  offset="0.648" style="stop-color:#897849"/>
						<stop  offset="1" style="stop-color:#A59864"/>
					</linearGradient>
					
						<path style="fill:none;stroke:url(#SVGID_00000057130434741539494550000014621786524926138290_);stroke-width:2.1866;stroke-linecap:round;stroke-miterlimit:10;" d="
						M170.875,217.774c-1.401,0.455-2.906-0.311-3.361-1.712c-0.455-1.401,0.311-2.906,1.712-3.361
						c1.401-0.455,2.905,0.312,3.361,1.712S172.276,217.319,170.875,217.774z"/>
					
						<linearGradient id="SVGID_00000168088195528346974460000012359054616143454599_" gradientUnits="userSpaceOnUse" x1="-196.4745" y1="744.3193" x2="-190.5657" y2="748.9722" gradientTransform="matrix(0.309 -0.9511 0.9511 0.309 -493.4828 -192.2106)">
						<stop  offset="0.0056" style="stop-color:#A59864"/>
						<stop  offset="0.3715" style="stop-color:#CEB256"/>
						<stop  offset="0.648" style="stop-color:#897849"/>
						<stop  offset="1" style="stop-color:#A59864"/>
					</linearGradient>
					
						<path style="fill:none;stroke:url(#SVGID_00000168088195528346974460000012359054616143454599_);stroke-width:2.1866;stroke-linecap:round;stroke-miterlimit:10;" d="
						M157.678,220.023c1.401,0.455,2.168,1.96,1.712,3.361c-0.455,1.401-1.96,2.168-3.361,1.712
						c-1.401-0.455-2.168-1.96-1.712-3.361C154.773,220.335,156.277,219.568,157.678,220.023z"/>
					
						<linearGradient id="SVGID_00000124145243458572323160000014318998783587326347_" gradientUnits="userSpaceOnUse" x1="-196.4743" y1="737.7586" x2="-190.5656" y2="742.4115" gradientTransform="matrix(0.309 -0.9511 0.9511 0.309 -493.4828 -192.2106)">
						<stop  offset="0.0056" style="stop-color:#A59864"/>
						<stop  offset="0.3715" style="stop-color:#CEB256"/>
						<stop  offset="0.648" style="stop-color:#897849"/>
						<stop  offset="1" style="stop-color:#A59864"/>
					</linearGradient>
					
						<path style="fill:none;stroke:url(#SVGID_00000124145243458572323160000014318998783587326347_);stroke-width:2.1866;stroke-linecap:round;stroke-miterlimit:10;" d="
						M151.439,217.996c1.401,0.455,2.167,1.96,1.712,3.361c-0.455,1.401-1.96,2.168-3.361,1.712
						c-1.401-0.455-2.168-1.96-1.712-3.361C148.533,218.307,150.038,217.541,151.439,217.996z"/>
					
						<linearGradient id="SVGID_00000163053947297627884400000006559943802179847060_" gradientUnits="userSpaceOnUse" x1="-808.576" y1="569.0192" x2="-802.6671" y2="573.6722" gradientTransform="matrix(-0.809 -0.5878 0.5878 -0.809 -828.3472 218.5696)">
						<stop  offset="0.0056" style="stop-color:#A59864"/>
						<stop  offset="0.3715" style="stop-color:#CEB256"/>
						<stop  offset="0.648" style="stop-color:#897849"/>
						<stop  offset="1" style="stop-color:#A59864"/>
					</linearGradient>
					
						<path style="fill:none;stroke:url(#SVGID_00000163053947297627884400000006559943802179847060_);stroke-width:2.1866;stroke-linecap:round;stroke-miterlimit:10;" d="
						M157.08,228.328c0.866-1.192,2.534-1.456,3.725-0.59s1.456,2.534,0.59,3.725s-2.534,1.456-3.726,0.59
						C156.478,231.187,156.214,229.519,157.08,228.328z"/>
					
						<linearGradient id="SVGID_00000163050327507362808930000006282760094473355699_" gradientUnits="userSpaceOnUse" x1="-808.5762" y1="562.4581" x2="-802.6672" y2="567.1111" gradientTransform="matrix(-0.809 -0.5878 0.5878 -0.809 -828.3472 218.5696)">
						<stop  offset="0.0056" style="stop-color:#A59864"/>
						<stop  offset="0.3715" style="stop-color:#CEB256"/>
						<stop  offset="0.648" style="stop-color:#897849"/>
						<stop  offset="1" style="stop-color:#A59864"/>
					</linearGradient>
					
						<path style="fill:none;stroke:url(#SVGID_00000163050327507362808930000006282760094473355699_);stroke-width:2.1866;stroke-linecap:round;stroke-miterlimit:10;" d="
						M153.223,233.636c0.866-1.192,2.534-1.456,3.726-0.59s1.456,2.534,0.59,3.725c-0.866,1.192-2.534,1.456-3.725,0.59
						C152.622,236.495,152.358,234.827,153.223,233.636z"/>
					
						<linearGradient id="SVGID_00000157301189473161393390000015074172971395131268_" gradientUnits="userSpaceOnUse" x1="-831.627" y1="-67.6991" x2="-825.718" y2="-63.0461" gradientTransform="matrix(-0.809 0.5878 -0.5878 -0.809 -541.8715 664.1026)">
						<stop  offset="0.0056" style="stop-color:#A59864"/>
						<stop  offset="0.3715" style="stop-color:#CEB256"/>
						<stop  offset="0.648" style="stop-color:#897849"/>
						<stop  offset="1" style="stop-color:#A59864"/>
					</linearGradient>
					
						<path style="fill:none;stroke:url(#SVGID_00000157301189473161393390000015074172971395131268_);stroke-width:2.1866;stroke-linecap:round;stroke-miterlimit:10;" d="
						M164.793,231.463c-0.866-1.192-0.602-2.86,0.59-3.725s2.86-0.602,3.725,0.59c0.866,1.192,0.602,2.86-0.59,3.725
						C167.326,232.919,165.659,232.655,164.793,231.463z"/>
					
						<linearGradient id="SVGID_00000124880043171887391340000006467269165908762295_" gradientUnits="userSpaceOnUse" x1="-831.6268" y1="-74.2601" x2="-825.7179" y2="-69.6071" gradientTransform="matrix(-0.809 0.5878 -0.5878 -0.809 -541.8715 664.1026)">
						<stop  offset="0.0056" style="stop-color:#A59864"/>
						<stop  offset="0.3715" style="stop-color:#CEB256"/>
						<stop  offset="0.648" style="stop-color:#897849"/>
						<stop  offset="1" style="stop-color:#A59864"/>
					</linearGradient>
					
						<path style="fill:none;stroke:url(#SVGID_00000124880043171887391340000006467269165908762295_);stroke-width:2.1866;stroke-linecap:round;stroke-miterlimit:10;" d="
						M168.649,236.771c-0.866-1.192-0.602-2.86,0.59-3.725c1.192-0.866,2.86-0.602,3.725,0.59c0.866,1.192,0.602,2.86-0.59,3.725
						C171.183,238.227,169.515,237.963,168.649,236.771z"/>
					
						<linearGradient id="SVGID_00000075841439149686628090000012666709498581107385_" gradientUnits="userSpaceOnUse" x1="-232.7052" y1="-286.8329" x2="-226.7964" y2="-282.18" gradientTransform="matrix(0.309 0.9511 -0.9511 0.309 -30.2671 528.9884)">
						<stop  offset="0.0056" style="stop-color:#A59864"/>
						<stop  offset="0.3715" style="stop-color:#CEB256"/>
						<stop  offset="0.648" style="stop-color:#897849"/>
						<stop  offset="1" style="stop-color:#A59864"/>
					</linearGradient>
					
						<path style="fill:none;stroke:url(#SVGID_00000075841439149686628090000012666709498581107385_);stroke-width:2.1866;stroke-linecap:round;stroke-miterlimit:10;" d="
						M170.158,225.096c-1.401,0.455-2.906-0.311-3.361-1.712c-0.455-1.401,0.311-2.906,1.712-3.361
						c1.401-0.455,2.906,0.311,3.361,1.712C172.326,223.137,171.559,224.641,170.158,225.096z"/>
					
						<linearGradient id="SVGID_00000152981332871073565740000006391868754563906714_" gradientUnits="userSpaceOnUse" x1="-232.7054" y1="-293.3936" x2="-226.7966" y2="-288.7407" gradientTransform="matrix(0.309 0.9511 -0.9511 0.309 -30.2671 528.9884)">
						<stop  offset="0.0056" style="stop-color:#A59864"/>
						<stop  offset="0.3715" style="stop-color:#CEB256"/>
						<stop  offset="0.648" style="stop-color:#897849"/>
						<stop  offset="1" style="stop-color:#A59864"/>
					</linearGradient>
					
						<path style="fill:none;stroke:url(#SVGID_00000152981332871073565740000006391868754563906714_);stroke-width:2.1866;stroke-linecap:round;stroke-miterlimit:10;" d="
						M176.398,223.069c-1.401,0.455-2.906-0.312-3.361-1.712c-0.455-1.401,0.311-2.906,1.712-3.361
						c1.401-0.455,2.906,0.312,3.361,1.712C178.566,221.109,177.799,222.614,176.398,223.069z"/>
					
						<linearGradient id="SVGID_00000014627455939372254100000015877805387848275348_" gradientUnits="userSpaceOnUse" x1="160.1396" y1="222.2609" x2="166.0485" y2="226.9139">
						<stop  offset="0.0056" style="stop-color:#A59864"/>
						<stop  offset="0.3715" style="stop-color:#CEB256"/>
						<stop  offset="0.648" style="stop-color:#897849"/>
						<stop  offset="1" style="stop-color:#A59864"/>
					</linearGradient>
					
						<circle style="fill:none;stroke:url(#SVGID_00000014627455939372254100000015877805387848275348_);stroke-width:2.1866;stroke-linecap:round;stroke-miterlimit:10;" cx="163.094" cy="224.587" r="2.667"/>
				</g>
				
					<linearGradient id="SVGID_00000047020948525778712440000018130477356124371130_" gradientUnits="userSpaceOnUse" x1="188.1795" y1="168.7536" x2="203.6296" y2="180.92">
					<stop  offset="0.0056" style="stop-color:#A59864"/>
					<stop  offset="0.3715" style="stop-color:#CEB256"/>
					<stop  offset="0.648" style="stop-color:#897849"/>
					<stop  offset="1" style="stop-color:#A59864"/>
				</linearGradient>
				
					<path style="fill:none;stroke:url(#SVGID_00000047020948525778712440000018130477356124371130_);stroke-width:2.1866;stroke-linecap:round;stroke-miterlimit:10;" d="
					M169.624,209.81c0,0,10.229-55.64,60.205-63.928"/>
			</g>
			<g>
				
					<linearGradient id="SVGID_00000037693586788108431340000002038300610140978567_" gradientUnits="userSpaceOnUse" x1="235.5878" y1="153.855" x2="266.6269" y2="178.2969">
					<stop  offset="0.0056" style="stop-color:#A59864"/>
					<stop  offset="0.3715" style="stop-color:#CEB256"/>
					<stop  offset="0.648" style="stop-color:#897849"/>
					<stop  offset="1" style="stop-color:#A59864"/>
				</linearGradient>
				<path style="fill:url(#SVGID_00000037693586788108431340000002038300610140978567_);" d="M268.619,157.713l0.338,7.589
					c0.117,2.58,0.253,5.213,0.316,7.869l0.015,0.632l-0.669,0.022c-2.835,0.092-5.671,0.166-8.506,0.219
					c-2.835,0.069-5.671,0.118-8.506,0.147c-5.671,0.095-11.341,0.094-17.012,0.123l-1.151,0.006l0.008-1.149
					c0.034-5.153,0.011-10.305,0.1-15.458l0.018-1.054l1.025,0.011c5.793,0.061,11.584,0.203,17.281,0.393
					c2.852,0.088,5.677,0.197,8.461,0.319L268.619,157.713z M268.619,157.713l-17.281,0.65c-5.644,0.19-11.195,0.332-16.743,0.393
					l1.043-1.043c0.089,5.152,0.067,10.305,0.1,15.458l-1.143-1.143c5.671,0.029,11.341,0.028,17.012,0.123
					c2.835,0.029,5.671,0.079,8.506,0.147c2.835,0.053,5.671,0.127,8.506,0.219l-0.654,0.654c0.064-2.497,0.2-5.017,0.316-7.589
					L268.619,157.713z"/>
				
					<linearGradient id="SVGID_00000130647314380708589220000018074738900000311937_" gradientUnits="userSpaceOnUse" x1="233.5201" y1="132.559" x2="270.7755" y2="161.896">
					<stop  offset="0.0056" style="stop-color:#A59864"/>
					<stop  offset="0.3715" style="stop-color:#CEB256"/>
					<stop  offset="0.648" style="stop-color:#897849"/>
					<stop  offset="1" style="stop-color:#A59864"/>
				</linearGradient>
				<path style="fill:url(#SVGID_00000130647314380708589220000018074738900000311937_);" d="M274.991,155.545l-3.42-19.41
					c-0.52-2.97-3.11-5.14-6.13-5.14h-27.67c-3.02,0-5.6,2.17-6.13,5.14l-3.42,19.41c-0.2,1.13,0.67,2.17,1.82,2.17h43.13
					C274.321,157.715,275.191,156.675,274.991,155.545z M251.611,150.175c-3.22,0-5.83-2.61-5.83-5.82c0-3.22,2.61-5.83,5.83-5.83
					c3.21,0,5.82,2.61,5.82,5.83C257.431,147.565,254.821,150.175,251.611,150.175z"/>
			</g>
			<g>
				
					<linearGradient id="SVGID_00000088841825599283731230000009745143536658612151_" gradientUnits="userSpaceOnUse" x1="181.4612" y1="243.275" x2="326.8813" y2="243.275">
					<stop  offset="0.0056" style="stop-color:#A59864"/>
					<stop  offset="0.3715" style="stop-color:#CEB256"/>
					<stop  offset="0.648" style="stop-color:#897849"/>
					<stop  offset="1" style="stop-color:#A59864"/>
				</linearGradient>
				
					<linearGradient id="SVGID_00000082336932889463815570000012131665195484771257_" gradientUnits="userSpaceOnUse" x1="196.1217" y1="200.7023" x2="312.2226" y2="292.1266">
					<stop  offset="0.0056" style="stop-color:#A59864"/>
					<stop  offset="0.3715" style="stop-color:#CEB256"/>
					<stop  offset="0.648" style="stop-color:#897849"/>
					<stop  offset="1" style="stop-color:#A59864"/>
				</linearGradient>
				
					<path style="fill:url(#SVGID_00000088841825599283731230000009745143536658612151_);stroke:url(#SVGID_00000082336932889463815570000012131665195484771257_);stroke-width:2.3562;stroke-linecap:round;stroke-miterlimit:10;" d="
					M275.031,176.745l-46.83,1.75c-27.34,10.45-46.74,36.92-46.74,67.93c0,27.2,14.95,50.93,37.09,63.38h71.25
					c22.12-12.45,37.08-36.18,37.08-63.38C326.881,213.505,305.021,185.715,275.031,176.745z M251.241,265.255
					c-17.49,0-31.68-14.18-31.68-31.68s14.19-31.68,31.68-31.68c17.5,0,31.69,14.18,31.69,31.68S268.741,265.255,251.241,265.255z"
					/>
				
					<linearGradient id="SVGID_00000165205908788903559790000008278409750632504718_" gradientUnits="userSpaceOnUse" x1="228.1978" y1="176.5074" x2="275.0277" y2="176.5074">
					<stop  offset="0.0056" style="stop-color:#A59864"/>
					<stop  offset="0.3715" style="stop-color:#CEB256"/>
					<stop  offset="0.648" style="stop-color:#897849"/>
					<stop  offset="1" style="stop-color:#A59864"/>
				</linearGradient>
				
					<linearGradient id="SVGID_00000081606873915185372220000005199817903929346948_" gradientUnits="userSpaceOnUse" x1="234.8103" y1="163.2763" x2="268.4152" y2="189.7386">
					<stop  offset="0.0056" style="stop-color:#A59864"/>
					<stop  offset="0.3715" style="stop-color:#CEB256"/>
					<stop  offset="0.648" style="stop-color:#897849"/>
					<stop  offset="1" style="stop-color:#A59864"/>
				</linearGradient>
				
					<rect x="228.198" y="173.709" style="fill:url(#SVGID_00000165205908788903559790000008278409750632504718_);stroke:url(#SVGID_00000081606873915185372220000005199817903929346948_);stroke-width:1.7938;stroke-linecap:round;stroke-miterlimit:10;" width="46.83" height="5.596"/>
			</g>
		</g>
		
			<linearGradient id="SVGID_00000159444003925509724410000002517445579017056385_" gradientUnits="userSpaceOnUse" x1="250.2567" y1="143.5627" x2="254.796" y2="147.1372">
			<stop  offset="0.0056" style="stop-color:#A59864"/>
			<stop  offset="0.3715" style="stop-color:#CEB256"/>
			<stop  offset="0.648" style="stop-color:#897849"/>
			<stop  offset="1" style="stop-color:#A59864"/>
		</linearGradient>
		<path style="fill:none;stroke:url(#SVGID_00000159444003925509724410000002517445579017056385_);stroke-miterlimit:10;" d="
			M254.915,145.35c0,1.319-1.069,2.389-2.389,2.389c-1.319,0-2.389-1.069-2.389-2.389c0-1.319,1.07-2.389,2.389-2.389
			C253.846,142.961,254.915,144.031,254.915,145.35z"/>
		
			<linearGradient id="SVGID_00000070836551518817230040000003664549688813162682_" gradientUnits="userSpaceOnUse" x1="144.7518" y1="310.8047" x2="360.3009" y2="310.8047">
			<stop  offset="0.0056" style="stop-color:#A59864"/>
			<stop  offset="0.3715" style="stop-color:#CEB256"/>
			<stop  offset="0.648" style="stop-color:#897849"/>
			<stop  offset="1" style="stop-color:#A59864"/>
		</linearGradient>
		
			<linearGradient id="SVGID_00000081642549406154289660000002315117424390221187_" gradientUnits="userSpaceOnUse" x1="185.6096" y1="258.1107" x2="319.4431" y2="363.4987">
			<stop  offset="0.0056" style="stop-color:#A59864"/>
			<stop  offset="0.3715" style="stop-color:#CEB256"/>
			<stop  offset="0.648" style="stop-color:#897849"/>
			<stop  offset="1" style="stop-color:#A59864"/>
		</linearGradient>
		
			<line style="fill:url(#SVGID_00000070836551518817230040000003664549688813162682_);stroke:url(#SVGID_00000081642549406154289660000002315117424390221187_);stroke-linecap:round;stroke-miterlimit:10;" x1="144.752" y1="310.805" x2="360.301" y2="310.805"/>
	</g>
	<g>
		
			<linearGradient id="SVGID_00000140729679095137186190000015975977317792012720_" gradientUnits="userSpaceOnUse" x1="27.9718" y1="248.5591" x2="465.5026" y2="248.5591">
			<stop  offset="0.0056" style="stop-color:#A59864"/>
			<stop  offset="0.3715" style="stop-color:#CEB256"/>
			<stop  offset="0.648" style="stop-color:#897849"/>
			<stop  offset="1" style="stop-color:#A59864"/>
		</linearGradient>
		<path style="fill:url(#SVGID_00000140729679095137186190000015975977317792012720_);" d="M464.943,467.045l-217.787-0.367
			l-217.249-0.767l-0.229-0.001l-0.001-0.229L27.979,32.009l-0.008-1.936l1.936,0.008l433.672,1.698l0.229,0.001l0.001,0.229
			l0.767,217.249L464.943,467.045z M462.216,464.318l0.367-215.885l0.767-216.423l0.23,0.23L29.908,33.938l1.928-1.928
			l-1.698,433.672l-0.23-0.23l216.423-0.767L462.216,464.318z"/>
		
			<linearGradient id="SVGID_00000016772123866217404490000006994024776857678976_" gradientUnits="userSpaceOnUse" x1="444.9" y1="32.01" x2="481.8" y2="32.01">
			<stop  offset="0.0056" style="stop-color:#A59864"/>
			<stop  offset="0.3715" style="stop-color:#CEB256"/>
			<stop  offset="0.648" style="stop-color:#897849"/>
			<stop  offset="1" style="stop-color:#A59864"/>
		</linearGradient>
		
			<path style="fill:none;stroke:url(#SVGID_00000016772123866217404490000006994024776857678976_);stroke-linecap:round;stroke-miterlimit:10;" d="
			M445.41,32.305c-0.01-0.1-0.01-0.2-0.01-0.3c0-0.1,0-0.2,0.01-0.3c0.15-9.77,8.13-17.64,17.94-17.64
			c9.91,0,17.95,8.03,17.95,17.94c0,9.74-7.76,17.67-17.43,17.94c-0.17,0.01-0.35,0.01-0.52,0.01c-0.02,0-0.04,0-0.06,0"/>
		
			<linearGradient id="SVGID_00000004542131933535209710000017665764923254588344_" gradientUnits="userSpaceOnUse" x1="444.9" y1="453.091" x2="481.8" y2="453.091" gradientTransform="matrix(1 0 0 -1 0 918.7723)">
			<stop  offset="0.0056" style="stop-color:#A59864"/>
			<stop  offset="0.3715" style="stop-color:#CEB256"/>
			<stop  offset="0.648" style="stop-color:#897849"/>
			<stop  offset="1" style="stop-color:#A59864"/>
		</linearGradient>
		
			<path style="fill:none;stroke:url(#SVGID_00000004542131933535209710000017665764923254588344_);stroke-linecap:round;stroke-miterlimit:10;" d="
			M463.29,447.736c0.02,0,0.04,0,0.06,0c0.17,0,0.35,0,0.52,0.01c9.67,0.27,17.43,8.2,17.43,17.94c0,9.91-8.04,17.94-17.95,17.94
			c-9.81,0-17.79-7.87-17.94-17.64c-0.01-0.1-0.01-0.2-0.01-0.3c0-0.1,0-0.2,0.01-0.3"/>
		
			<linearGradient id="SVGID_00000179619264419337265420000010918929662107847814_" gradientUnits="userSpaceOnUse" x1="-169.3723" y1="32.01" x2="-132.4723" y2="32.01" gradientTransform="matrix(-1 0 0 1 -121.0146 0)">
			<stop  offset="0.0056" style="stop-color:#A59864"/>
			<stop  offset="0.3715" style="stop-color:#CEB256"/>
			<stop  offset="0.648" style="stop-color:#897849"/>
			<stop  offset="1" style="stop-color:#A59864"/>
		</linearGradient>
		
			<path style="fill:none;stroke:url(#SVGID_00000179619264419337265420000010918929662107847814_);stroke-linecap:round;stroke-miterlimit:10;" d="
			M29.968,49.955c-0.02,0-0.04,0-0.06,0c-0.17,0-0.35,0-0.52-0.01c-9.67-0.27-17.43-8.2-17.43-17.94c0-9.91,8.04-17.94,17.95-17.94
			c9.81,0,17.79,7.87,17.94,17.64c0.01,0.1,0.01,0.2,0.01,0.3c0,0.1,0,0.2-0.01,0.3"/>
		
			<linearGradient id="SVGID_00000068676218337927122540000000222065380659036055_" gradientUnits="userSpaceOnUse" x1="-169.3723" y1="453.091" x2="-132.4723" y2="453.091" gradientTransform="matrix(-1 0 0 -1 -121.0146 918.7723)">
			<stop  offset="0.0056" style="stop-color:#A59864"/>
			<stop  offset="0.3715" style="stop-color:#CEB256"/>
			<stop  offset="0.648" style="stop-color:#897849"/>
			<stop  offset="1" style="stop-color:#A59864"/>
		</linearGradient>
		
			<path style="fill:none;stroke:url(#SVGID_00000068676218337927122540000000222065380659036055_);stroke-linecap:round;stroke-miterlimit:10;" d="
			M47.848,465.386c0.01,0.1,0.01,0.2,0.01,0.3c0,0.1,0,0.2-0.01,0.3c-0.15,9.77-8.13,17.64-17.94,17.64
			c-9.91,0-17.95-8.03-17.95-17.94c0-9.74,7.76-17.67,17.43-17.94c0.17-0.01,0.35-0.01,0.52-0.01c0.02,0,0.04,0,0.06,0"/>
	</g>
</g>
</svg>
